<svg width="392" height="218" viewBox="0 0 392 218" fill="none" xmlns="http://www.w3.org/2000/svg">
<g filter="url(#filter0_d_657_953)">
<path d="M376 16V81.459C376 121.551 376 141.597 368.197 156.91C361.334 170.38 350.383 181.332 336.913 188.195C321.6 195.998 301.554 195.997 261.462 195.997H16V130.538C16 90.4463 16.0003 70.4001 23.8027 55.0869C30.6659 41.6171 41.6171 30.666 55.0869 23.8027C70.4001 16.0003 90.4464 16 130.538 16H376Z" fill="#001321"/>
<path d="M384 8V81.459C384 101.373 384.006 116.789 382.998 129.128C381.982 141.56 379.897 151.57 375.325 160.542C367.695 175.517 355.52 187.693 340.545 195.323C331.573 199.895 321.563 201.98 309.131 202.995C296.792 204.003 281.376 203.997 261.462 203.997H8V130.538L8.00195 123.278C8.01456 106.818 8.11982 93.6653 9.00195 82.8691C10.0178 70.4372 12.1032 60.4274 16.6748 51.4551C24.305 36.48 36.48 24.305 51.4551 16.6748C60.4274 12.1032 70.4372 10.0178 82.8691 9.00195C95.2077 7.99379 110.624 8 130.538 8H384Z" stroke="url(#paint0_linear_657_953)" stroke-width="16"/>
</g>
<g filter="url(#filter1_d_657_953)">
<path d="M68.9971 118.516C68.9971 126.264 76.1203 133.972 86.6982 133.972C97.2768 133.972 104.399 126.263 104.399 118.516V114.968H124.399V118.516C124.399 138.867 106.697 153.972 86.6982 153.972C67.012 153.972 49.5506 139.336 49.0098 119.466L48.9971 118.516L48.998 61.9722H68.998L68.9971 118.516Z" fill="white"/>
<path d="M293.855 57.9722C307.763 57.9722 318.369 62.2868 328.379 69.1763L317.634 85.3089C310.191 80.6311 302.769 77.9722 293.855 77.9722C275.763 77.9723 262.533 91.2712 262.504 105.923C262.504 105.939 262.505 105.956 262.505 105.972L262.504 105.977C262.504 116.799 258.75 126.588 252.506 134.462L252.504 134.459C243.011 146.428 227.76 153.972 211.153 153.972C202.055 153.972 189.832 149.095 185.802 144.211V124.138C191.721 129.899 200.403 133.972 211.153 133.972C229.265 133.972 242.504 120.643 242.504 105.972L242.505 105.971C242.505 95.2074 246.277 85.401 252.505 77.5132V77.479C261.998 65.5118 277.25 57.9722 293.855 57.9722Z" fill="white"/>
<path d="M159.801 116.277V105.972C159.801 89.6907 168.432 75.6008 181.137 67.0259L192.902 83.2212C184.738 88.46 179.801 96.876 179.801 105.972V149.999H161.091L124.399 97.6655V108.968H104.399V61.9985H121.691L159.801 116.277Z" fill="white"/>
<path d="M211.153 57.9722C225.563 57.9722 238.952 63.6514 248.444 72.9731L247.807 73.7817C243.546 79.1746 240.292 85.3924 238.393 92.1821C233.127 83.8916 223.223 77.9722 211.153 77.9722C206.544 77.9722 202.198 78.8606 198.296 80.436L186.319 63.9517C193.713 60.127 202.192 57.9722 211.153 57.9722Z" fill="white"/>
<path d="M83.709 54.9722H64.709V39.9722H83.709V54.9722Z" fill="white"/>
<path d="M108.709 54.9722H89.709V39.9722H108.709V54.9722Z" fill="white"/>
<path d="M345.207 105.972C345.207 106.312 345.203 106.651 345.195 106.989L345.191 107.16C345.19 107.221 345.188 107.282 345.187 107.343C345.099 110.31 344.729 113.195 344.104 115.979C339.121 138.158 317.907 153.972 293.856 153.972C279.453 153.972 266.069 148.298 256.577 138.983L257.207 138.19C261.485 132.795 264.736 126.579 266.628 119.779C271.897 128.06 281.795 133.972 293.856 133.972C307.696 133.972 320.571 126.054 324.707 114.969H293.856V96.9685C299.443 96.8578 340.575 96.9685 344.317 96.9685C344.9 99.8718 345.207 102.88 345.207 105.972Z" fill="white"/>
</g>
<defs>
<filter id="filter0_d_657_953" x="0" y="0" width="392" height="217.997" filterUnits="userSpaceOnUse" color-interpolation-filters="sRGB">
<feFlood flood-opacity="0" result="BackgroundImageFix"/>
<feColorMatrix in="SourceAlpha" type="matrix" values="0 0 0 0 0 0 0 0 0 0 0 0 0 0 0 0 0 0 127 0" result="hardAlpha"/>
<feOffset dy="6"/>
<feColorMatrix type="matrix" values="0 0 0 0 0 0 0 0 0 0.0745098 0 0 0 0 0.129412 0 0 0 0.5 0"/>
<feBlend mode="normal" in2="BackgroundImageFix" result="effect1_dropShadow_657_953"/>
<feBlend mode="normal" in="SourceGraphic" in2="effect1_dropShadow_657_953" result="shape"/>
</filter>
<filter id="filter1_d_657_953" x="48.9971" y="39.9722" width="296.21" height="120" filterUnits="userSpaceOnUse" color-interpolation-filters="sRGB">
<feFlood flood-opacity="0" result="BackgroundImageFix"/>
<feColorMatrix in="SourceAlpha" type="matrix" values="0 0 0 0 0 0 0 0 0 0 0 0 0 0 0 0 0 0 127 0" result="hardAlpha"/>
<feOffset dy="6"/>
<feComposite in2="hardAlpha" operator="out"/>
<feColorMatrix type="matrix" values="0 0 0 0 0 0 0 0 0 0 0 0 0 0 0 0 0 0 1 0"/>
<feBlend mode="soft-light" in2="BackgroundImageFix" result="effect1_dropShadow_657_953"/>
<feBlend mode="normal" in="SourceGraphic" in2="effect1_dropShadow_657_953" result="shape"/>
</filter>
<linearGradient id="paint0_linear_657_953" x1="16" y1="44.5388" x2="200.224" y2="296.155" gradientUnits="userSpaceOnUse">
<stop offset="0.07" stop-color="#77C83F"/>
<stop offset="0.47" stop-color="#0193CB"/>
<stop offset="0.53" stop-color="#0193CB"/>
<stop offset="0.93" stop-color="#5929A8"/>
</linearGradient>
</defs>
</svg>
