<svg xmlns="http://www.w3.org/2000/svg" viewBox="0 0 156.66 88.12"><defs><style>.cls-1{fill:#563795;}.cls-2{fill:#2193c7;}.cls-3{fill:#7ac943;}.cls-4{fill:#fff;}</style></defs><g id="Layer_2" data-name="Layer 2"><g id="Layer_1-2" data-name="Layer 1"><path d="M76.45,0H30.93A30.93,30.93,0,0,0,0,30.93V88.12H125.92a30.74,30.74,0,0,0,30.74-30.74V0Z"/><path class="cls-1" d="M150.52,7.08V55.24c0,14.26-12.68,25.81-28.33,25.81H86.34l-6.13,7.07h45.71a30.74,30.74,0,0,0,30.74-30.74V0Z"/><polygon class="cls-2" points="76.6 7.07 150.52 7.07 150.52 7.08 156.66 0 76.45 0 70.32 7.07 76.6 7.07"/><polygon class="cls-2" points="80.06 81.05 6.14 81.05 6.14 81.05 0 88.12 80.21 88.12 86.34 81.05 80.06 81.05"/><path class="cls-3" d="M6.14,33c0-14.34,12.76-26,28.5-26H70.32L76.45,0H30.93A30.93,30.93,0,0,0,0,30.93V88.12L6.14,81Z"/><path class="cls-4" d="M41.7,48.54a15.84,15.84,0,0,1-.51,5,4.4,4.4,0,0,1-1.83,2.13,5.66,5.66,0,0,1-3.15.85,5.54,5.54,0,0,1-3-.76,4.23,4.23,0,0,1-1.76-2,9.59,9.59,0,0,1-.5-3.09c0-.38,0-.78,0-1.22V25.85H24V47.56c0,4.34.42,7.43,1.26,9.25,0,.1.12.2.17.3a10.64,10.64,0,0,0,4,4.26,12.81,12.81,0,0,0,6.89,1.82,13.55,13.55,0,0,0,5.3-1,10.86,10.86,0,0,0,4-2.93A10.7,10.7,0,0,0,48,55.19a31.63,31.63,0,0,0,.62-7.63V44.11h-7Z"/><polygon class="cls-4" points="63.96 49.82 50.02 28.38 48.38 25.85 41.73 25.85 41.73 38.07 41.73 42.97 48.66 42.97 48.66 38.38 64.22 62.27 70.89 62.27 70.89 43.64 63.96 43.64 63.96 49.82"/><path class="cls-4" d="M79.23,32.23a12.08,12.08,0,0,1,15.09,8.16,15.67,15.67,0,0,1,1.32-5,25.51,25.51,0,0,1,2.1-3.29c-.36-.41-1.14-1.2-1.54-1.6a18.05,18.05,0,0,0-13.29-5.59,18.69,18.69,0,0,0-9.52,2.56,19.42,19.42,0,0,0-7,6.94,18,18,0,0,0-2.47,8h7a12,12,0,0,1,3.37-7.23A11.36,11.36,0,0,1,79.23,32.23Z"/><path class="cls-4" d="M94.76,45.57a11.57,11.57,0,0,1-3.4,7.34A11,11,0,0,1,83,56.48a12,12,0,0,1-3.73-.66,14,14,0,0,1-4.63-2.58,15.06,15.06,0,0,1-2.8-3.88l0,10.37a19.39,19.39,0,0,0,7.41,3.09,19.73,19.73,0,0,0,3.73.37c5.22,0,9-1.61,13.32-5.53,5.17-4.73,5.44-12.11,5.44-12.11Z"/><path class="cls-4" d="M132.61,43.8H114.29v6.51h10.55a10.67,10.67,0,0,1-4,4.73,11.4,11.4,0,0,1-6.06,1.51,17.65,17.65,0,0,1-2.5-.17,12,12,0,0,1-6.28-3,14.86,14.86,0,0,1-3.74-5.63,12.75,12.75,0,0,1-1.18,4.81,20.41,20.41,0,0,1-2,3.47,19.17,19.17,0,0,0,5.33,4.71,20.53,20.53,0,0,0,3,1.32,21.85,21.85,0,0,0,7.08,1.15,18.27,18.27,0,0,0,9.23-2.26,17.27,17.27,0,0,0,6.41-6.53,17.86,17.86,0,0,0,2.48-9.06Z"/><path class="cls-4" d="M94.82,44.21l6.93,0A10.57,10.57,0,0,1,103.28,38a12,12,0,0,1,11.1-6.24,14.42,14.42,0,0,1,10.8,4.9l4.88-4.83a20.45,20.45,0,0,0-6.83-5.1,22.52,22.52,0,0,0-8.89-1.75c-14.37,0-18.21,11.16-19,14.35A14.47,14.47,0,0,0,94.82,44.21Z"/></g></g></svg>